<svg xmlns="http://www.w3.org/2000/svg" xmlns:xlink="http://www.w3.org/1999/xlink" viewBox="0,0,256,256" width="48px" height="48px"><g fill="#111827" fill-rule="nonzero" stroke="none" stroke-width="1" stroke-linecap="butt" stroke-linejoin="miter" stroke-miterlimit="10" stroke-dasharray="" stroke-dashoffset="0" font-family="none" font-weight="none" font-size="none" text-anchor="none" style="mix-blend-mode: normal"><path d="M0,256v-256h256v256z" id="bgRectangle"></path></g><g fill="none" fill-rule="nonzero" stroke="none" stroke-width="1" stroke-linecap="butt" stroke-linejoin="miter" stroke-miterlimit="10" stroke-dasharray="" stroke-dashoffset="0" font-family="none" font-weight="none" font-size="none" text-anchor="none" style="mix-blend-mode: normal"><g transform="scale(5.33333,5.33333)"><path d="M24,46c-10.5,0 -19,-8.4 -19,-18.6c0,-8.1 5.3,-15.3 13.2,-17.7c1.7,-0.6 3,-4.3 3.3,-5.4l0.5,-2.3l1.3,1.9c1.1,1.7 3.2,5 4.6,5.2c8.7,1.8 15.1,9.5 15.1,18.3c0,10.2 -8.5,18.6 -19,18.6z" fill="#039be5"></path><path d="M29.5,35.2c0.6,0 1.3,0 1.8,0.3c0.5,0.3 0.8,1 0.9,1.4c0.2,0.4 0,0.6 -0.3,0.8c-0.3,0.2 -0.3,0.1 -0.6,-0.4c-0.3,-0.5 -0.5,-1 -1.9,-1c-1.4,0 -1.8,0.5 -2.5,1c-0.7,0.5 -0.9,0.7 -1.1,0.4c-0.2,-0.3 -0.2,-0.6 0.3,-1c0.4,-0.4 1.1,-1 1.8,-1.3c0.6,-0.3 1,-0.2 1.6,-0.2zM22.9,39.6c0.8,0.6 2,1.1 4.5,1.1c2.5,0 4.3,-0.7 5.1,-1.3c0.4,-0.3 0.5,0 0.6,0.1c0,0.2 0.1,0.4 -0.2,0.7c-0.2,0.2 -2,1.4 -4.2,1.6c-2.1,0.2 -5,0.3 -6.8,-1.2c-0.3,-0.3 -0.2,-0.7 0,-0.8c0.2,-0.2 0.4,-0.3 0.6,-0.3c0.2,0 0.3,0 0.4,0.1zM14,31.6c0,-2.9 2.9,-5.6 6.6,-5.6c4.6,0 7.9,4.3 10.2,4.2c2,0 5.8,-3.7 7.7,-3.7c2,0 2.5,1.9 2.5,3.1c0,1.1 -0.4,3.2 -1.4,4.5c-1,1.3 -1.5,1.8 -2.7,1.7c-1.4,-0.1 -4.3,-4.2 -6.1,-4.3c-2.3,-0.1 -7.3,4.5 -11.2,4.5c-2.4,0 -3.1,-0.3 -3.9,-0.8c-1.1,-0.8 -1.7,-2 -1.7,-3.6z" fill="#ffffff"></path></g></g></svg>